<?xml version="1.0" encoding="UTF-8" standalone="no"?>
<!DOCTYPE svg PUBLIC "-//W3C//DTD SVG 1.1//EN" "http://www.w3.org/Graphics/SVG/1.1/DTD/svg11.dtd">
<svg width="100%" height="100%" viewBox="0 0 154 487" version="1.1" xmlns="http://www.w3.org/2000/svg" xmlns:xlink="http://www.w3.org/1999/xlink" xml:space="preserve" xmlns:serif="http://www.serif.com/" style="fill-rule:evenodd;clip-rule:evenodd;stroke-linecap:round;stroke-linejoin:round;stroke-miterlimit:1.5;">
    <g transform="matrix(1.33333,0,0,1.33333,0,0)">
        <g id="Copper">
            <g transform="matrix(2.22345,-2.17448e-14,1.26844e-15,-0.106231,-8.85239,383.376)">
                <path d="M5.911,341.107C21.38,340.541 37.761,343.05 53.266,341.022" style="fill:none;stroke:rgb(141,141,141);stroke-width:0.35px;stroke-linecap:butt;"/>
            </g>
            <g transform="matrix(2.22345,-2.17448e-14,1.26844e-15,-0.106231,-8.85239,53.1931)">
                <path d="M5.911,341.107C21.38,340.541 37.761,343.05 53.266,341.022" style="fill:none;stroke:rgb(141,141,141);stroke-width:0.35px;stroke-linecap:butt;"/>
            </g>
            <g transform="matrix(-1,0,0,1,122.348,208.026)">
                <path d="M38.402,147.983L40.244,146.142L42.081,147.983L40.244,149.825L38.402,147.983Z" style="fill:rgb(141,141,141);fill-rule:nonzero;"/>
                <path d="M43.601,147.983L45.443,146.142L47.279,147.983L45.443,149.825L43.601,147.983Z" style="fill:rgb(141,141,141);fill-rule:nonzero;"/>
                <path d="M48.8,147.983L50.641,146.142L52.478,147.983L50.641,149.825L48.8,147.983Z" style="fill:rgb(141,141,141);fill-rule:nonzero;"/>
            </g>
            <g transform="matrix(-1,0,0,1,82.1703,207.971)">
                <path d="M38.402,147.983L40.244,146.142L42.081,147.983L40.244,149.825L38.402,147.983Z" style="fill:rgb(141,141,141);fill-rule:nonzero;"/>
                <path d="M43.601,147.983L45.443,146.142L47.279,147.983L45.443,149.825L43.601,147.983Z" style="fill:rgb(141,141,141);fill-rule:nonzero;"/>
                <path d="M48.8,147.983L50.641,146.142L52.478,147.983L50.641,149.825L48.8,147.983Z" style="fill:rgb(141,141,141);fill-rule:nonzero;"/>
            </g>
            <g transform="matrix(-0.647524,0,0,0.647524,121.422,154.018)">
                <path d="M48.8,147.983L50.641,146.142L52.478,147.983L50.641,149.825L48.8,147.983Z" style="fill:rgb(141,141,141);fill-rule:nonzero;"/>
            </g>
            <g transform="matrix(-0.647524,0,0,0.647524,102.898,154.018)">
                <path d="M48.8,147.983L50.641,146.142L52.478,147.983L50.641,149.825L48.8,147.983Z" style="fill:rgb(141,141,141);fill-rule:nonzero;"/>
            </g>
            <g transform="matrix(1,0,0,1,-44.261,-81.8272)">
                <path d="M52.804,121.432L52.447,123.801L51.845,123.801L52.202,121.432L52.804,121.432Z" style="fill:rgb(141,141,141);fill-rule:nonzero;"/>
            </g>
            <g transform="matrix(1,0,0,1,-44.261,-45.0772)">
                <path d="M53.024,122.047C53.024,122.196 52.98,122.352 52.891,122.514C52.802,122.676 52.643,122.92 52.412,123.247L53.014,123.247L52.93,123.801L51.348,123.801L51.348,123.751C51.605,123.454 51.812,123.201 51.968,122.992C52.132,122.77 52.248,122.586 52.317,122.441C52.385,122.296 52.419,122.188 52.419,122.117C52.419,122.057 52.397,122.003 52.352,121.955C52.307,121.907 52.238,121.883 52.146,121.883C52.065,121.883 51.991,121.9 51.924,121.934C51.858,121.969 51.765,122.026 51.645,122.107L51.722,121.582C51.918,121.46 52.122,121.399 52.335,121.399C52.466,121.399 52.585,121.428 52.691,121.486C52.797,121.543 52.879,121.622 52.937,121.722C52.995,121.821 53.024,121.93 53.024,122.047Z" style="fill:rgb(141,141,141);fill-rule:nonzero;"/>
            </g>
            <g transform="matrix(1,0,0,1,-44.261,-8.32717)">
                <path d="M53.123,122.008C53.123,122.057 53.114,122.119 53.096,122.193C53.078,122.268 53.031,122.345 52.955,122.423C52.879,122.502 52.765,122.551 52.612,122.572C52.765,122.627 52.869,122.707 52.924,122.815C52.979,122.922 53.007,123.029 53.007,123.136C53.007,123.222 52.982,123.319 52.932,123.426C52.882,123.533 52.791,123.628 52.66,123.709C52.529,123.791 52.352,123.831 52.129,123.831C51.892,123.831 51.654,123.774 51.414,123.66L51.484,123.182C51.578,123.237 51.659,123.278 51.727,123.306C51.795,123.334 51.854,123.353 51.903,123.362C51.952,123.372 52,123.377 52.048,123.377C52.144,123.377 52.225,123.35 52.292,123.297C52.359,123.244 52.392,123.171 52.392,123.076C52.392,122.996 52.363,122.929 52.305,122.874C52.247,122.82 52.159,122.792 52.042,122.792C51.99,122.792 51.918,122.797 51.824,122.806L51.884,122.351C51.966,122.365 52.05,122.372 52.136,122.372C52.28,122.372 52.382,122.341 52.44,122.28C52.498,122.22 52.527,122.153 52.527,122.081C52.527,122.039 52.516,122 52.495,121.963C52.474,121.926 52.443,121.895 52.402,121.872C52.361,121.849 52.312,121.837 52.255,121.837C52.101,121.837 51.903,121.894 51.66,122.008L51.734,121.536C51.937,121.445 52.151,121.399 52.376,121.399C52.528,121.399 52.66,121.426 52.773,121.478C52.886,121.53 52.972,121.603 53.033,121.697C53.093,121.79 53.123,121.894 53.123,122.008Z" style="fill:rgb(141,141,141);fill-rule:nonzero;"/>
            </g>
            <g transform="matrix(1,0,0,1,-44.261,28.4228)">
                <path d="M53.168,122.905L53.104,123.343L52.79,123.343L52.72,123.801L52.146,123.801L52.216,123.343L51.358,123.343L51.358,122.891L52.546,121.432L53.07,121.432L52.853,122.905L53.168,122.905ZM52.388,122.201L51.814,122.905L52.282,122.905L52.388,122.201Z" style="fill:rgb(141,141,141);fill-rule:nonzero;"/>
            </g>
            <g transform="matrix(1,0,0,1,-44.261,65.9228)">
                <path d="M53.123,121.432L53.053,121.963L52.356,121.963L52.296,122.314C52.475,122.314 52.621,122.351 52.733,122.426C52.845,122.5 52.924,122.591 52.969,122.697C53.015,122.803 53.038,122.902 53.038,122.996C53.038,123.098 53.015,123.2 52.969,123.302C52.924,123.404 52.861,123.495 52.78,123.573C52.699,123.652 52.601,123.715 52.488,123.761C52.374,123.808 52.249,123.831 52.115,123.831C52.025,123.831 51.935,123.822 51.846,123.802C51.756,123.783 51.678,123.76 51.612,123.733C51.545,123.706 51.472,123.674 51.394,123.637L51.554,123.153C51.605,123.186 51.655,123.214 51.706,123.237C51.756,123.261 51.811,123.28 51.871,123.296C51.93,123.312 51.989,123.32 52.048,123.32C52.126,123.32 52.193,123.307 52.25,123.279C52.307,123.252 52.35,123.215 52.379,123.168C52.408,123.122 52.423,123.071 52.423,123.016C52.423,122.966 52.409,122.916 52.382,122.866C52.354,122.816 52.31,122.774 52.249,122.741C52.188,122.708 52.11,122.691 52.016,122.691C51.94,122.691 51.829,122.709 51.684,122.744L51.901,121.432L53.123,121.432Z" style="fill:rgb(141,141,141);fill-rule:nonzero;"/>
            </g>
            <g transform="matrix(1,0,0,1,-44.261,102.673)">
                <path d="M53.144,122.943C53.144,123.043 53.124,123.145 53.085,123.249C53.046,123.354 52.986,123.45 52.905,123.539C52.825,123.628 52.725,123.699 52.605,123.752C52.486,123.805 52.349,123.831 52.195,123.831C52.029,123.831 51.883,123.797 51.756,123.729C51.63,123.66 51.533,123.566 51.466,123.447C51.398,123.327 51.365,123.191 51.365,123.038C51.365,122.952 51.375,122.868 51.396,122.786C51.417,122.705 51.448,122.623 51.487,122.542C51.526,122.46 51.579,122.369 51.644,122.268C51.71,122.166 51.789,122.055 51.881,121.934L52.265,121.432L52.884,121.432L52.339,122.281C52.416,122.256 52.483,122.244 52.539,122.244C52.643,122.244 52.741,122.274 52.835,122.333C52.929,122.393 53.004,122.476 53.06,122.582C53.116,122.688 53.144,122.808 53.144,122.943ZM52.527,122.926C52.527,122.855 52.504,122.797 52.458,122.75C52.412,122.704 52.357,122.681 52.293,122.681C52.233,122.681 52.177,122.7 52.124,122.738C52.07,122.775 52.027,122.825 51.995,122.886C51.962,122.948 51.946,123.012 51.946,123.079C51.946,123.159 51.969,123.224 52.015,123.274C52.061,123.324 52.12,123.349 52.192,123.349C52.24,123.349 52.29,123.334 52.342,123.304C52.395,123.274 52.439,123.227 52.474,123.162C52.509,123.098 52.527,123.019 52.527,122.926Z" style="fill:rgb(141,141,141);fill-rule:nonzero;"/>
            </g>
            <g transform="matrix(-0.69729,-0.40258,0.40258,-0.69729,20.8631,504.145)">
                <circle cx="57.575" cy="245.052" r="13.515" style="fill:none;stroke:rgb(141,141,141);stroke-width:1.06px;"/>
            </g>
            <g transform="matrix(-0.90823,-0.524367,0.524367,-0.90823,3.16397,562.848)">
                <circle cx="57.575" cy="245.052" r="13.515" style="fill:none;stroke:rgb(141,141,141);stroke-width:0.81px;"/>
            </g>
            <g transform="matrix(-0.69729,-0.40258,0.40258,-0.69729,20.8631,467.027)">
                <circle cx="57.575" cy="245.052" r="13.515" style="fill:none;stroke:rgb(141,141,141);stroke-width:1.06px;"/>
            </g>
            <g transform="matrix(-0.90823,-0.524367,0.524367,-0.90823,3.16397,525.73)">
                <circle cx="57.575" cy="245.052" r="13.515" style="fill:none;stroke:rgb(141,141,141);stroke-width:0.81px;"/>
            </g>
            <g transform="matrix(1,0,0,1,-48.4416,54.2164)">
                <path d="M57.41,206.426L56.438,208.795L55.829,208.795L56.581,206.958L55.72,206.958L55.819,206.426L57.41,206.426Z" style="fill:rgb(141,141,141);fill-rule:nonzero;"/>
            </g>
            <g transform="matrix(1,0,0,1,-48.4416,91.7176)">
                <path d="M57.337,206.985C57.337,207.08 57.316,207.165 57.275,207.241C57.234,207.316 57.18,207.38 57.113,207.431C57.045,207.482 56.969,207.523 56.882,207.553C57.028,207.614 57.129,207.695 57.185,207.795C57.242,207.895 57.27,207.995 57.27,208.094C57.27,208.218 57.24,208.328 57.179,208.422C57.119,208.516 57.041,208.592 56.945,208.651C56.849,208.711 56.749,208.755 56.643,208.783C56.537,208.811 56.44,208.826 56.354,208.826C56.194,208.826 56.049,208.796 55.919,208.737C55.788,208.678 55.687,208.596 55.615,208.492C55.542,208.389 55.506,208.271 55.506,208.14C55.506,208.05 55.524,207.965 55.558,207.885C55.593,207.805 55.647,207.732 55.722,207.666C55.796,207.601 55.891,207.546 56.007,207.503C55.964,207.47 55.925,207.435 55.892,207.398C55.859,207.361 55.831,207.314 55.808,207.258C55.784,207.201 55.773,207.134 55.773,207.055C55.773,206.953 55.804,206.85 55.867,206.748C55.929,206.645 56.024,206.56 56.15,206.494C56.276,206.427 56.428,206.394 56.608,206.394C56.801,206.394 56.952,206.428 57.061,206.496C57.171,206.565 57.244,206.644 57.281,206.734C57.318,206.824 57.337,206.908 57.337,206.985ZM56.762,207.002C56.762,206.949 56.747,206.901 56.717,206.858C56.687,206.815 56.644,206.794 56.588,206.794C56.521,206.794 56.464,206.823 56.417,206.882C56.37,206.94 56.347,207.018 56.347,207.115C56.347,207.169 56.362,207.218 56.393,207.264C56.424,207.309 56.47,207.332 56.532,207.332C56.605,207.332 56.661,207.299 56.702,207.234C56.742,207.168 56.762,207.091 56.762,207.002ZM56.655,208.021C56.655,207.853 56.58,207.77 56.431,207.77C56.337,207.77 56.263,207.805 56.207,207.875C56.151,207.945 56.123,208.03 56.123,208.13C56.123,208.201 56.143,208.261 56.183,208.312C56.223,208.363 56.284,208.388 56.368,208.388C56.41,208.388 56.453,208.375 56.498,208.348C56.543,208.321 56.581,208.28 56.61,208.225C56.64,208.17 56.655,208.102 56.655,208.021Z" style="fill:rgb(141,141,141);fill-rule:nonzero;"/>
            </g>
            <g transform="matrix(5.32907e-17,-1.04611,1.04611,5.32907e-17,-176.89,121.248)">
                <circle cx="57.575" cy="245.052" r="13.515" style="fill:none;stroke:rgb(141,141,141);stroke-width:2.86px;"/>
            </g>
            <g transform="matrix(-0.707895,1.22611,-1.22611,-0.707895,420.588,163.773)">
                <circle cx="57.575" cy="245.052" r="13.515" style="fill:none;stroke:rgb(144,142,141);stroke-width:0.6px;"/>
            </g>
            <g transform="matrix(-0.849474,1.47133,-1.47133,-0.849474,488.831,184.349)">
                <circle cx="57.575" cy="245.052" r="13.515" style="fill:none;stroke:rgb(144,142,141);stroke-width:0.5px;"/>
            </g>
            <g transform="matrix(0.569651,-1.68939,1.68939,0.569651,-365.948,147.257)">
                <path d="M46.215,241.96C46.148,242.206 46.008,242.392 45.797,242.518C45.585,242.644 45.36,242.674 45.122,242.61C44.885,242.545 44.707,242.405 44.588,242.189C44.47,241.974 44.443,241.743 44.51,241.497C44.577,241.252 44.716,241.067 44.927,240.942C45.139,240.817 45.363,240.786 45.6,240.851C45.838,240.915 46.017,241.055 46.136,241.27C46.255,241.485 46.281,241.715 46.215,241.96ZM44.628,241.534C44.572,241.741 44.595,241.935 44.698,242.116C44.801,242.296 44.955,242.415 45.16,242.47C45.366,242.526 45.559,242.503 45.74,242.399C45.92,242.295 46.038,242.139 46.094,241.932C46.151,241.725 46.128,241.53 46.025,241.347C45.923,241.165 45.769,241.046 45.562,240.99C45.357,240.934 45.164,240.959 44.983,241.064C44.803,241.17 44.684,241.326 44.628,241.534Z" style="fill:rgb(141,141,141);fill-rule:nonzero;"/>
                <path d="M45.904,243.27L45.854,243.741C45.834,243.922 45.779,244.056 45.688,244.143C45.597,244.231 45.481,244.267 45.342,244.252C45.2,244.237 45.094,244.176 45.021,244.071C44.949,243.965 44.923,243.819 44.943,243.632L44.978,243.304L44.178,243.219L44.192,243.087L45.904,243.27ZM45.78,243.39L45.088,243.316L45.054,243.635C45.039,243.778 45.058,243.89 45.11,243.97C45.163,244.051 45.244,244.098 45.354,244.109C45.46,244.121 45.547,244.093 45.617,244.027C45.687,243.961 45.729,243.86 45.744,243.725L45.78,243.39Z" style="fill:rgb(141,141,141);fill-rule:nonzero;"/>
                <path d="M45.789,245.664L45.678,245.666L45.667,244.86L44.978,244.869L44.988,245.654L44.876,245.655L44.866,244.87L44.168,244.879L44.178,245.704L44.067,245.706L44.055,244.747L45.777,244.725L45.789,245.664Z" style="fill:rgb(141,141,141);fill-rule:nonzero;"/>
                <path d="M46.039,247.634L44.338,247.897L44.321,247.787L45.608,246.265L44.121,246.495L44.101,246.363L45.802,246.1L45.819,246.212L44.532,247.732L46.019,247.502L46.039,247.634Z" style="fill:rgb(141,141,141);fill-rule:nonzero;"/>
                <path d="M46.685,249.821L46.548,249.875C46.575,249.703 46.568,249.568 46.528,249.468C46.49,249.371 46.429,249.303 46.345,249.261C46.261,249.22 46.175,249.217 46.089,249.251C46.027,249.276 45.979,249.317 45.945,249.375C45.91,249.433 45.894,249.532 45.897,249.671C45.9,249.811 45.897,249.915 45.888,249.982C45.88,250.05 45.854,250.115 45.812,250.177C45.769,250.239 45.702,250.289 45.61,250.326C45.487,250.374 45.365,250.371 45.244,250.314C45.124,250.258 45.038,250.165 44.986,250.035C44.933,249.902 44.925,249.747 44.962,249.57L45.108,249.512C45.056,249.712 45.052,249.869 45.098,249.983C45.135,250.077 45.198,250.145 45.285,250.186C45.373,250.227 45.461,250.229 45.551,250.194C45.619,250.167 45.672,250.122 45.71,250.06C45.749,249.998 45.767,249.895 45.765,249.753C45.763,249.61 45.766,249.507 45.774,249.442C45.782,249.378 45.805,249.316 45.844,249.258C45.883,249.199 45.945,249.153 46.03,249.119C46.148,249.073 46.266,249.078 46.384,249.135C46.503,249.192 46.588,249.284 46.638,249.411C46.688,249.535 46.703,249.672 46.685,249.821Z" style="fill:rgb(141,141,141);fill-rule:nonzero;"/>
                <path d="M47.396,250.963C47.524,251.183 47.559,251.413 47.5,251.652C47.441,251.891 47.305,252.073 47.092,252.197C46.88,252.321 46.655,252.349 46.418,252.283C46.181,252.216 45.998,252.073 45.87,251.852C45.742,251.633 45.708,251.404 45.767,251.166C45.826,250.927 45.962,250.746 46.174,250.622C46.387,250.498 46.612,250.469 46.849,250.535C47.086,250.601 47.268,250.744 47.396,250.963ZM45.979,251.795C46.087,251.98 46.241,252.099 46.442,252.153C46.643,252.207 46.836,252.18 47.019,252.073C47.204,251.965 47.323,251.811 47.375,251.609C47.427,251.408 47.4,251.215 47.292,251.029C47.183,250.843 47.028,250.723 46.826,250.668C46.625,250.613 46.431,250.639 46.247,250.747C46.063,250.854 45.945,251.009 45.894,251.212C45.842,251.414 45.87,251.609 45.979,251.795Z" style="fill:rgb(141,141,141);fill-rule:nonzero;"/>
                <path d="M48.909,253.069L48.995,253.171L48.275,253.774C48.078,253.939 47.883,254.015 47.69,254.002C47.497,253.989 47.332,253.901 47.195,253.738C47.059,253.576 47.001,253.399 47.021,253.208C47.04,253.016 47.142,252.843 47.326,252.689L48.069,252.066L48.156,252.169L47.416,252.789C47.259,252.921 47.171,253.066 47.152,253.224C47.133,253.382 47.179,253.527 47.29,253.659C47.401,253.793 47.537,253.863 47.697,253.872C47.857,253.88 48.019,253.815 48.184,253.677L48.909,253.069Z" style="fill:rgb(141,141,141);fill-rule:nonzero;"/>
                <path d="M49.329,253.504L49.661,253.795C49.801,253.916 49.881,254.04 49.902,254.164C49.922,254.289 49.888,254.403 49.798,254.505C49.667,254.655 49.493,254.688 49.276,254.605C49.3,254.663 49.3,254.779 49.275,254.954L49.177,255.658L49.059,255.555L49.143,255.002C49.172,254.817 49.178,254.692 49.161,254.625C49.145,254.559 49.096,254.491 49.015,254.42L48.84,254.267L48.296,254.888L48.196,254.801L49.329,253.504ZM49.356,253.676L48.913,254.183L49.128,254.371C49.237,254.467 49.34,254.518 49.437,254.524C49.533,254.531 49.617,254.493 49.688,254.412C49.758,254.332 49.783,254.245 49.763,254.149C49.743,254.053 49.678,253.957 49.568,253.86L49.356,253.676Z" style="fill:rgb(141,141,141);fill-rule:nonzero;"/>
                <path d="M51.671,255.428L51.591,255.55C51.477,255.343 51.337,255.184 51.169,255.074C50.991,254.957 50.801,254.919 50.601,254.962C50.401,255.005 50.242,255.117 50.122,255.299C50.001,255.483 49.962,255.674 50.005,255.872C50.048,256.07 50.163,256.231 50.35,256.354C50.507,256.457 50.71,256.52 50.959,256.543L50.883,256.659C50.654,256.637 50.454,256.57 50.285,256.459C50.066,256.315 49.929,256.125 49.876,255.888C49.822,255.652 49.864,255.429 50.002,255.22C50.14,255.009 50.33,254.882 50.572,254.838C50.814,254.795 51.038,254.84 51.244,254.976C51.406,255.082 51.548,255.233 51.671,255.428Z" style="fill:rgb(141,141,141);fill-rule:nonzero;"/>
                <path d="M52.958,255.915L52.91,256.016L52.182,255.671L51.887,256.294L52.596,256.629L52.548,256.731L51.839,256.395L51.54,257.027L52.286,257.38L52.239,257.48L51.372,257.07L52.109,255.514L52.958,255.915Z" style="fill:rgb(141,141,141);fill-rule:nonzero;"/>
            </g>
            <g id="path2010" transform="matrix(0.0676218,0,0,0.0676218,37.2702,304.051)">
                <path d="M295.861,199.123L268.931,207.904C239.519,217.492 220.429,226.414 216.817,232.258C213.675,237.342 235.172,232.947 255.351,224.38C285.316,211.658 294.264,211.758 314.253,225.028C324.217,231.643 333.19,236.236 334.189,235.237C335.189,234.237 326.975,225.7 315.936,216.269L295.861,199.123ZM353.733,215.328C351.491,215.33 347.961,216.782 344.88,219.115C340.769,222.227 339.724,224.598 342.433,224.662C345.244,224.734 347.161,229.884 347.161,237.379C347.161,244.309 348.294,251.114 349.68,252.499C354.194,257.014 355.637,255.172 353.622,247.467C352.535,243.311 353.189,238.959 355.073,237.795C359.41,235.114 359.561,218.327 355.272,215.677C354.884,215.437 354.36,215.327 353.733,215.328L353.733,215.328ZM198.53,217.299C195.167,217.235 191.922,218.394 190.336,220.958C183.806,231.525 175.984,271.47 175.709,295.656L175.399,323.067L159.416,329.173C141.061,336.183 126.168,349.508 136.689,349.508C140.844,349.508 142.05,351.526 140.426,355.759C138.371,361.114 140.155,361.709 152.833,359.911C160.973,358.757 170.504,356.651 174.015,355.233C179.152,353.158 180.87,355.487 182.813,367.148C184.14,375.117 187.594,389.29 190.486,398.644C193.378,407.999 196.671,421.603 197.805,428.879C198.94,436.154 201.575,444.656 203.663,447.774C206.948,452.682 208.213,452.458 213.058,446.108C216.137,442.073 218.655,435.169 218.655,430.766C218.655,412.88 239.88,403.074 258.34,412.43C262.498,414.537 274.405,415.755 284.799,415.137C314.174,413.389 321.295,415.973 320.359,428.059C319.922,433.705 319.818,443.103 320.132,448.943C320.821,461.773 325.369,459.721 333.049,443.113C341.643,424.527 344.303,413.759 340.296,413.759C338.319,413.759 335.813,417.164 334.726,421.321C331.853,432.308 325.453,430.578 322.707,418.071C320.472,407.898 318.847,407.084 295.008,404.269C263.333,400.529 229.585,399.226 223.378,401.501C220.779,402.453 218.655,406.564 218.655,410.636C218.655,419.915 212.017,432.66 207.184,432.66C205.178,432.66 203.535,427.825 203.535,421.919C203.535,416.013 201.006,402.831 197.91,392.626C194.815,382.422 192.262,368.55 192.241,361.794C192.201,349.732 191.885,349.508 174.912,349.508C160.504,349.508 157.832,348.406 158.851,342.892C159.523,339.255 166.558,333.112 174.486,329.24C185.422,323.898 188.222,320.708 186.096,316.013C181.804,306.539 182.883,254.665 187.43,251.841C189.633,250.472 192.032,245.101 192.761,239.904C193.744,232.901 196.291,230.529 202.594,230.752C212.144,231.089 211.927,231.348 208.8,223.201C207.373,219.482 202.855,217.381 198.53,217.299L198.53,217.299ZM303.523,245.18C300.084,245.146 296.736,245.797 293.319,247.096C284.639,250.396 275.348,267.269 275.348,279.733C275.348,289.305 289.501,301.421 303.927,304.198C325.117,308.278 324.349,308.272 331.454,304.47C336.043,302.014 338.166,295.48 338.751,282.042C339.484,265.196 338.42,262.263 329.195,255.766C319.091,248.649 311.089,245.256 303.523,245.18L303.523,245.18ZM312.747,251.968C312.886,251.969 312.793,252.178 312.437,252.616C311.01,254.366 314.376,259.692 319.911,264.453C329.248,272.484 329.593,273.818 324.7,282.961C318.296,294.927 308.456,295.579 298.33,284.71C289.873,275.633 291.713,269.123 306.18,256.906C309.833,253.822 312.328,251.965 312.747,251.968ZM215.599,255.456C195.568,255.571 182.315,279.495 201.836,299.016C209.365,306.545 213.708,308.097 221.678,306.109C246.061,300.024 253.216,277.06 235.154,262.852C228.497,257.616 221.731,255.42 215.599,255.456ZM352.637,261.784C352.109,261.848 351.722,264.158 351.673,268.25C351.596,274.487 352.382,277.492 353.417,274.933C354.453,272.374 354.513,267.272 353.556,263.594C353.226,262.33 352.913,261.75 352.636,261.784L352.637,261.784ZM210.661,268.549C213.99,268.464 219.163,270.684 223.195,274.102C231.731,281.34 231.753,281.569 224.546,287.141C216.676,293.225 210.106,294.349 206.054,290.297C201.099,285.342 203.669,282.219 211.098,284.162C215.324,285.267 218.655,284.279 218.655,281.92C218.655,279.599 215.255,277.696 211.098,277.696C202.336,277.696 200.983,271.928 209.022,268.843C209.493,268.662 210.044,268.565 210.661,268.549ZM318.333,270.388C316.979,270.431 314.862,271.164 311.562,272.43C308.274,273.692 305.583,276.243 305.583,278.1C305.583,279.956 308.988,281.477 313.145,281.477C317.345,281.477 320.703,278.957 320.703,275.808C320.703,271.931 320.445,270.32 318.333,270.388ZM352.166,282.036C349.905,282.102 351.067,292.051 355.039,303.446C358.963,314.702 359.894,315.14 376.77,313.638C386.468,312.775 396.527,311.99 399.126,311.894C401.724,311.796 403.854,308.978 403.854,305.638C403.854,301.375 401.88,300.345 397.238,302.183C393.6,303.624 387.511,305.436 383.707,306.208C379.903,306.981 373.519,308.653 369.517,309.923C361.991,312.312 359.57,309.106 357.381,293.856C356.718,289.233 354.995,284.273 353.556,282.833C353,282.278 352.536,282.025 352.166,282.036ZM401.174,316.262C396.689,316.271 393.091,318.384 390.041,322.74C387.009,327.069 382.202,330.613 379.361,330.613C372.06,330.613 350.937,349.118 350.937,355.516C350.937,364.494 358.206,361.434 360.725,351.396C362.03,346.2 365.633,341.951 368.731,341.951C377.297,341.951 400.251,330.183 398.19,326.848C397.193,325.234 400.186,322.652 404.839,321.112L413.299,318.311L404.424,316.589C403.291,316.369 402.209,316.26 401.174,316.262ZM284.334,317.641C262.182,317.638 235.792,319.144 226.212,321.732C221.016,323.136 214.638,323.934 212.039,323.504C207.521,322.757 205.479,328.214 207.256,336.282C207.713,338.361 209.207,347.711 210.578,357.066L213.069,374.074L238.891,376.631C253.093,378.037 265.267,379.74 265.942,380.413C269.293,383.754 306.331,383.39 312.752,379.953C321.001,375.538 332.336,342.01 329.389,330.74C328.352,326.773 322.827,321.898 317.109,319.905C312.664,318.356 299.49,317.644 284.334,317.641ZM284.976,323.637C285.98,323.628 287.054,323.837 288.193,324.273C295.182,326.956 295.858,337.888 290.269,358.012C287.348,368.53 284.32,372.186 278.543,372.186C272.591,372.186 271.413,370.625 273.532,365.57C275.057,361.932 276.092,353.003 275.83,345.727C275.33,331.857 278.84,323.689 284.976,323.637ZM312.78,326.831C314.551,326.831 317.857,329.072 320.132,331.814C323.184,335.491 322.419,341.689 317.209,355.438C308.38,378.737 298.025,382.722 298.025,362.824C298.025,348.782 307.025,326.831 312.78,326.831ZM238.271,330.613C245.216,330.613 245.835,332.215 243.757,344.786C242.469,352.581 241.393,361.083 241.371,363.682C241.348,366.28 238.931,368.404 235.995,368.404C230.217,368.404 223.833,341.297 228.017,334.527C229.349,332.372 233.964,330.613 238.271,330.613ZM266.058,331.593C267.505,331.598 268.851,332.757 269.862,335.391C271.051,338.489 270.567,346.649 268.788,353.517C264.014,371.939 256.452,372.274 256.452,354.065C256.452,341.943 261.718,331.574 266.058,331.593ZM350.743,375.967C348.754,376.069 347.161,377.729 347.161,379.743C347.161,381.822 348.858,383.524 350.937,383.524C353.016,383.524 354.718,381.822 354.718,379.743C354.718,377.664 353.016,375.967 350.937,375.967C350.872,375.967 350.807,375.964 350.743,375.967L350.743,375.967ZM344.321,387.261C342.825,387.394 341.365,392.44 341.054,398.6C340.546,408.749 346.459,415.586 347.632,406.201C348.571,398.685 349.216,396.675 352.166,392.028C353.877,389.334 353.446,387.3 351.164,387.3C348.963,387.3 345.914,387.283 344.393,387.261C344.37,387.261 344.345,387.259 344.321,387.261L344.321,387.261Z" style="fill:rgb(141,141,141);fill-rule:nonzero;"/>
            </g>
        </g>
    </g>
</svg>
