<?xml version="1.0" encoding="UTF-8" standalone="no"?>
<!DOCTYPE svg PUBLIC "-//W3C//DTD SVG 1.1//EN" "http://www.w3.org/Graphics/SVG/1.1/DTD/svg11.dtd">
<svg width="100%" height="100%" viewBox="0 0 154 487" version="1.1" xmlns="http://www.w3.org/2000/svg" xmlns:xlink="http://www.w3.org/1999/xlink" xml:space="preserve" xmlns:serif="http://www.serif.com/" style="fill-rule:evenodd;clip-rule:evenodd;stroke-linejoin:round;stroke-miterlimit:2;">
    <g transform="matrix(1.33333,0,0,1.33333,0,0)">
        <g id="mask" transform="matrix(0.99202,0.126081,-0.126081,0.99202,24.5211,-8.63794)">
            <g transform="matrix(0.0419326,-0.00543887,0.00543887,0.0419326,61.2134,174.682)">
                <path d="M194.041,249.159C200.138,253.048 208.193,251.572 212.51,245.766C224.4,229.834 242.469,220.69 262.069,220.69C282.221,220.69 301.2,230.579 312.855,247.159C318.028,254.497 330.262,254.497 335.434,247.159C347.076,230.579 366.055,220.69 386.207,220.69C408.414,220.69 429.062,232.731 440.124,252.097C442.593,256.428 447.186,259.048 452.097,259.048C452.566,259.048 453.021,259.034 453.49,258.979C458.91,258.428 463.503,254.745 465.214,249.559C473.6,224.055 497.283,206.897 524.138,206.897C545.131,206.897 564.538,217.434 576.055,235.09C578.124,238.276 581.434,240.455 585.172,241.131C588.924,241.779 592.772,240.883 595.821,238.634C631.655,212.041 656.028,179.614 668.276,142.221C670.634,135.034 666.772,127.297 659.614,124.869C623.779,112.676 590.814,106.497 561.655,106.497C525.697,106.497 501.324,115.89 485.959,125.241C470.703,45.931 419.034,13.972 398.483,4.193C395.959,1.669 392.593,-0 388.786,-0L385.876,-0C382.069,-0 378.703,1.655 376.179,4.207C355.628,13.972 303.945,45.917 288.69,125.255C273.324,115.89 248.952,106.51 213.007,106.51C183.848,106.51 150.883,112.69 115.048,124.883C107.89,127.31 104.028,135.048 106.386,142.234C120.193,184.455 150.524,221.434 194.041,249.159Z" style="fill:rgb(206,199,76);fill-rule:nonzero;"/>
            </g>
            <g transform="matrix(0.0419326,-0.00543887,0.00543887,0.0419326,61.2134,174.682)">
                <path d="M710.345,393.103C710.345,362.124 694.593,333.848 668.717,317.462C666.607,288.841 650.855,263.683 627.352,248.745C622.538,252.869 617.517,256.897 612.262,260.786C605.048,266.124 596.524,268.924 587.586,268.924C585.214,268.924 582.814,268.717 580.441,268.303C569.103,266.276 559.145,259.655 552.938,250.138C546.552,240.345 535.779,234.483 524.138,234.483C509.228,234.483 496.069,244.014 491.407,258.193C486.303,273.71 472.497,284.8 456.248,286.428C454.869,286.566 453.503,286.634 452.097,286.634C437.283,286.634 423.517,278.634 416.166,265.766C410,254.979 398.524,248.276 386.207,248.276C375.021,248.276 364.483,253.779 358,263.021C350.386,273.821 337.738,280.248 324.138,280.248C310.538,280.248 297.89,273.821 290.303,263.048C283.793,253.779 273.255,248.276 262.069,248.276C251.103,248.276 241.366,253.241 234.634,262.262C222.207,278.979 196.883,283.669 179.214,272.428C169.752,266.4 161.034,259.862 152.703,253.062C131.048,269.517 117.241,295.283 117.241,324.138C117.241,329.738 117.779,335.338 118.828,340.841C100.414,357.738 89.655,381.807 89.655,406.897C89.655,430.979 99.49,454.014 116.483,470.745C108.014,484.69 103.448,500.786 103.448,517.241C103.448,555.779 127.462,588.924 162.524,601.476C159.945,609.931 158.621,618.745 158.621,627.586C158.621,666.083 183.007,699.793 218.828,712.207C231.241,748.028 264.952,772.414 303.448,772.414C316.855,772.414 329.89,769.462 341.834,763.779C358.593,786.414 385.062,800 413.793,800C440.579,800 465.503,788.193 482.455,767.917C491.462,770.91 500.8,772.414 510.345,772.414C552.731,772.414 589.297,742.014 597.986,701.434C638.566,692.731 668.966,656.179 668.966,613.793C668.966,607.2 668.221,600.634 666.745,594.179C693.572,578.138 710.345,549.117 710.345,517.241C710.345,493.945 701.2,471.724 685.31,455.172C701.2,438.621 710.345,416.4 710.345,393.103ZM365.572,402.772C373.131,402.124 379.848,407.752 380.497,415.338C382.593,439.807 401.834,450.841 417.683,452.855C433.434,454.91 454.731,449.034 462.869,425.931C465.393,418.745 473.297,414.966 480.455,417.517C487.641,420.055 491.407,427.917 488.869,435.103C477.517,467.324 449.255,480.8 423.421,480.8C420.29,480.8 417.214,480.607 414.193,480.221C386.11,476.634 356.303,455.917 353.021,417.683C352.359,410.11 357.986,403.434 365.572,402.772ZM189.848,408.055C184.69,402.455 185.048,393.724 190.662,388.566C196.262,383.393 204.993,383.766 210.152,389.379C226.786,407.434 248.745,404.386 262.51,396.303C276.193,388.248 289.462,370.593 281.766,347.366C279.366,340.138 283.297,332.331 290.524,329.945C297.766,327.545 305.559,331.476 307.945,338.703C319.972,375.048 300.814,405.766 276.483,420.083C265.779,426.386 252.786,430.276 239.393,430.276C222.262,430.276 204.441,423.903 189.848,408.055ZM299.283,609.6C296.152,609.6 293.076,609.407 290.055,609.021C261.959,605.448 232.152,584.717 228.869,546.483C228.221,538.897 233.834,532.207 241.434,531.559C249.007,530.897 255.71,536.524 256.359,544.124C258.455,568.593 277.697,579.628 293.545,581.655C309.297,583.641 330.593,577.807 338.731,554.731C341.255,547.545 349.159,543.779 356.317,546.317C363.503,548.855 367.269,556.717 364.731,563.903C353.379,596.124 325.117,609.6 299.283,609.6ZM441.131,713.503C430.924,718.979 418.814,722.303 406.359,722.303C388.386,722.303 369.71,715.407 355.021,698.152C350.083,692.359 350.772,683.641 356.579,678.703C362.359,673.752 371.09,674.455 376.028,680.262C391.959,698.952 414.028,696.745 428.083,689.2C442.069,681.683 456,664.552 449.214,641.034C447.103,633.71 473.614,626.055 475.724,633.393C486.331,670.179 466,700.124 441.131,713.503ZM564.883,590.124C554.179,596.428 541.186,600.317 527.793,600.317C510.648,600.317 492.828,593.959 478.234,578.11C473.076,572.51 473.434,563.779 479.048,558.621C484.662,553.462 493.379,553.834 498.538,559.434C515.172,577.49 537.145,574.455 550.897,566.359C564.579,558.303 577.848,540.648 570.152,517.421C567.752,510.193 571.683,502.386 578.91,500C586.138,497.6 593.945,501.531 596.331,508.759C608.359,545.09 589.2,575.807 564.883,590.124ZM624,380.193C609.407,396.234 591.49,402.676 574.262,402.676C561.048,402.676 548.248,398.897 537.669,392.745C513.172,378.538 493.752,347.862 505.586,311.366C507.917,304.124 515.738,300.152 522.952,302.497C530.193,304.841 534.166,312.621 531.821,319.862C524.248,343.228 537.697,360.869 551.503,368.883C565.241,376.855 587.131,379.766 603.6,361.628C608.731,356.014 617.434,355.586 623.09,360.703C628.717,365.834 629.117,374.552 624,380.193Z" style="fill:rgb(206,199,76);fill-rule:nonzero;"/>
            </g>
            <g transform="matrix(0.161614,0.0161478,-0.0161478,0.161614,-11.8067,-42.0821)">
                <path d="M145.141,937.286L148.842,943.588L155.98,945.161L151.13,950.628L151.84,957.902L145.141,954.979L138.442,957.902L139.152,950.628L134.302,945.161L141.44,943.588L145.141,937.286Z" style="fill:rgb(206,199,76);"/>
            </g>
            <g transform="matrix(0.137483,-0.0110268,0.0110268,0.137483,74.8615,97.4863)">
                <path d="M145.141,937.286L148.842,943.588L155.98,945.161L151.13,950.628L151.84,957.902L145.141,954.979L138.442,957.902L139.152,950.628L134.302,945.161L141.44,943.588L145.141,937.286Z" style="fill:rgb(206,199,76);"/>
            </g>
            <g transform="matrix(0.137483,-0.0110268,0.0110268,0.137483,7.13335,211.821)">
                <path d="M145.141,937.286L148.842,943.588L155.98,945.161L151.13,950.628L151.84,957.902L145.141,954.979L138.442,957.902L139.152,950.628L134.302,945.161L141.44,943.588L145.141,937.286Z" style="fill:rgb(206,199,76);"/>
            </g>
            <g transform="matrix(0.173027,-0.0354511,0.0350839,0.171235,-11.9286,92.9357)">
                <path d="M145.141,937.286L148.842,943.588L155.98,945.161L151.13,950.628L151.84,957.902L145.141,954.979L138.442,957.902L139.152,950.628L134.302,945.161L141.44,943.588L145.141,937.286Z" style="fill:rgb(206,199,76);"/>
            </g>
            <g transform="matrix(0.088884,-0.0764542,0.0764542,0.088884,-26.0842,129.127)">
                <path d="M145.141,937.286L148.842,943.588L155.98,945.161L151.13,950.628L151.84,957.902L145.141,954.979L138.442,957.902L139.152,950.628L134.302,945.161L141.44,943.588L145.141,937.286Z" style="fill:rgb(206,199,76);"/>
            </g>
            <g transform="matrix(0.088884,-0.0764542,0.0764542,0.088884,8.58765,31.6822)">
                <path d="M145.141,937.286L148.842,943.588L155.98,945.161L151.13,950.628L151.84,957.902L145.141,954.979L138.442,957.902L139.152,950.628L134.302,945.161L141.44,943.588L145.141,937.286Z" style="fill:rgb(206,199,76);"/>
            </g>
            <g transform="matrix(0.116822,-0.00990866,0.00990866,0.116822,16.5955,26.3817)">
                <path d="M145.141,937.286L148.842,943.588L155.98,945.161L151.13,950.628L151.84,957.902L145.141,954.979L138.442,957.902L139.152,950.628L134.302,945.161L141.44,943.588L145.141,937.286Z" style="fill:rgb(206,199,76);"/>
            </g>
            <g transform="matrix(0.173027,-0.0354511,0.0350839,0.171235,-39.6761,140.265)">
                <path d="M145.141,937.286L148.842,943.588L155.98,945.161L151.13,950.628L151.84,957.902L145.141,954.979L138.442,957.902L139.152,950.628L134.302,945.161L141.44,943.588L145.141,937.286Z" style="fill:rgb(206,199,76);"/>
            </g>
            <g transform="matrix(0.173027,-0.0354511,0.0350839,0.171235,4.84107,122.197)">
                <path d="M145.141,937.286L148.842,943.588L155.98,945.161L151.13,950.628L151.84,957.902L145.141,954.979L138.442,957.902L139.152,950.628L134.302,945.161L141.44,943.588L145.141,937.286Z" style="fill:rgb(206,199,76);"/>
            </g>
            <g transform="matrix(0.139966,0.00321153,-0.00283258,0.123451,93.1364,128.458)">
                <path d="M145.141,937.286L148.842,943.588L155.98,945.161L151.13,950.628L151.84,957.902L145.141,954.979L138.442,957.902L139.152,950.628L134.302,945.161L141.44,943.588L145.141,937.286Z" style="fill:rgb(206,199,76);"/>
            </g>
            <g transform="matrix(0.0844929,0.0115092,-0.01139,0.0836178,113.514,247.928)">
                <path d="M145.141,937.286L148.842,943.588L155.98,945.161L151.13,950.628L151.84,957.902L145.141,954.979L138.442,957.902L139.152,950.628L134.302,945.161L141.44,943.588L145.141,937.286Z" style="fill:rgb(206,199,76);"/>
            </g>
            <g transform="matrix(-0.0972789,0.111228,-0.111228,-0.0972789,208.311,233.345)">
                <path d="M145.141,937.286L148.842,943.588L155.98,945.161L151.13,950.628L151.84,957.902L145.141,954.979L138.442,957.902L139.152,950.628L134.302,945.161L141.44,943.588L145.141,937.286Z" style="fill:rgb(206,199,76);"/>
            </g>
            <g transform="matrix(-0.0563387,0.114633,-0.114633,-0.0563387,134.03,225.511)">
                <path d="M145.141,937.286L148.842,943.588L155.98,945.161L151.13,950.628L151.84,957.902L145.141,954.979L138.442,957.902L139.152,950.628L134.302,945.161L141.44,943.588L145.141,937.286Z" style="fill:rgb(206,199,76);"/>
            </g>
            <g transform="matrix(-0.125827,-0.0622758,0.0622758,-0.125827,-18.7151,279.715)">
                <path d="M145.141,937.286L148.842,943.588L155.98,945.161L151.13,950.628L151.84,957.902L145.141,954.979L138.442,957.902L139.152,950.628L134.302,945.161L141.44,943.588L145.141,937.286Z" style="fill:rgb(206,199,76);"/>
            </g>
            <g transform="matrix(-0.094821,-0.131866,0.131866,-0.094821,-62.0524,280.338)">
                <path d="M145.141,937.286L148.842,943.588L155.98,945.161L151.13,950.628L151.84,957.902L145.141,954.979L138.442,957.902L139.152,950.628L134.302,945.161L141.44,943.588L145.141,937.286Z" style="fill:rgb(206,199,76);"/>
            </g>
            <g transform="matrix(-0.0204779,-0.161122,0.161122,-0.0204779,-109.283,73.1363)">
                <path d="M145.141,937.286L148.842,943.588L155.98,945.161L151.13,950.628L151.84,957.902L145.141,954.979L138.442,957.902L139.152,950.628L134.302,945.161L141.44,943.588L145.141,937.286Z" style="fill:rgb(206,199,76);"/>
            </g>
            <g transform="matrix(-0.088884,0.0764542,-0.0764542,-0.088884,189.334,253.118)">
                <path d="M145.141,937.286L148.842,943.588L155.98,945.161L151.13,950.628L151.84,957.902L145.141,954.979L138.442,957.902L139.152,950.628L134.302,945.161L141.44,943.588L145.141,937.286Z" style="fill:rgb(206,199,76);"/>
            </g>
            <g transform="matrix(-0.088884,0.0764542,-0.0764542,-0.088884,154.976,296.294)">
                <path d="M145.141,937.286L148.842,943.588L155.98,945.161L151.13,950.628L151.84,957.902L145.141,954.979L138.442,957.902L139.152,950.628L134.302,945.161L141.44,943.588L145.141,937.286Z" style="fill:rgb(206,199,76);"/>
            </g>
            <g transform="matrix(-0.144965,-0.0286321,0.0286321,-0.144965,62.8592,233.114)">
                <path d="M145.141,937.286L148.842,943.588L155.98,945.161L151.13,950.628L151.84,957.902L145.141,954.979L138.442,957.902L139.152,950.628L134.302,945.161L141.44,943.588L145.141,937.286Z" style="fill:rgb(206,199,76);"/>
            </g>
            <g transform="matrix(-0.110653,-0.0387487,0.0387487,-0.110653,22.4794,211.276)">
                <path d="M145.141,937.286L148.842,943.588L155.98,945.161L151.13,950.628L151.84,957.902L145.141,954.979L138.442,957.902L139.152,950.628L134.302,945.161L141.44,943.588L145.141,937.286Z" style="fill:rgb(206,199,76);"/>
            </g>
            <g transform="matrix(0.238085,-0.0302594,0.0302594,0.238085,24.7794,4.17251)">
                <path d="M199.88,363.044L201.281,366.831L205.069,368.233L201.281,369.635L199.88,373.422L198.478,369.635L194.69,368.233L198.478,366.831L199.88,363.044Z" style="fill:rgb(206,199,76);"/>
            </g>
            <g transform="matrix(0.238357,0.0280379,-0.0280379,0.238357,36.82,-64.8459)">
                <path d="M199.88,363.044L201.281,366.831L205.069,368.233L201.281,369.635L199.88,373.422L198.478,369.635L194.69,368.233L198.478,366.831L199.88,363.044Z" style="fill:rgb(206,199,76);"/>
            </g>
            <g transform="matrix(0.238085,-0.0302594,0.0302594,0.238085,8.52412,72.0672)">
                <path d="M199.88,363.044L201.281,366.831L205.069,368.233L201.281,369.635L199.88,373.422L198.478,369.635L194.69,368.233L198.478,366.831L199.88,363.044Z" style="fill:rgb(206,199,76);"/>
            </g>
            <g transform="matrix(0.237143,0.0369217,-0.0369217,0.237143,50.8836,141.064)">
                <path d="M199.88,363.044L201.281,366.831L205.069,368.233L201.281,369.635L199.88,373.422L198.478,369.635L194.69,368.233L198.478,366.831L199.88,363.044Z" style="fill:rgb(206,199,76);"/>
            </g>
            <g transform="matrix(0.222141,-0.0908493,0.0908493,0.222141,36.3961,226.054)">
                <path d="M199.88,363.044L201.281,366.831L205.069,368.233L201.281,369.635L199.88,373.422L198.478,369.635L194.69,368.233L198.478,366.831L199.88,363.044Z" style="fill:rgb(206,199,76);"/>
            </g>
        </g>
    </g>
</svg>
