<?xml version="1.0" encoding="UTF-8" standalone="no"?>
<!DOCTYPE svg PUBLIC "-//W3C//DTD SVG 1.1//EN" "http://www.w3.org/Graphics/SVG/1.1/DTD/svg11.dtd">
<svg width="100%" height="100%" viewBox="0 0 154 487" version="1.1" xmlns="http://www.w3.org/2000/svg" xmlns:xlink="http://www.w3.org/1999/xlink" xml:space="preserve" xmlns:serif="http://www.serif.com/" style="fill-rule:evenodd;clip-rule:evenodd;stroke-linecap:round;stroke-linejoin:round;stroke-miterlimit:1.5;">
    <g transform="matrix(1.33333,0,0,1.33333,0,0)">
        <g id="Silk">
            <g transform="matrix(1,0,0,1,-5.92404,235.426)">
                <path d="M60.591,117.71L57.594,123.88L56.746,123.88L55.801,120.364L53.929,123.88L53.068,123.88L51.771,117.71L53.265,117.71L53.859,121.19L55.594,117.71L56.592,117.71L57.423,121.19L59.022,117.71L60.591,117.71Z" style="fill:white;fill-rule:nonzero;"/>
                <path d="M66.809,117.899L66.603,119.221C65.964,119.04 65.362,118.949 64.797,118.949C64.231,118.949 63.76,119.053 63.384,119.261C63.007,119.469 62.736,119.729 62.569,120.041C62.402,120.353 62.318,120.667 62.318,120.984C62.318,121.25 62.377,121.501 62.496,121.735C62.615,121.97 62.79,122.158 63.021,122.3C63.253,122.442 63.525,122.513 63.839,122.513C63.973,122.513 64.105,122.502 64.234,122.48C64.363,122.458 64.474,122.434 64.568,122.408C64.662,122.381 64.744,122.356 64.814,122.333L64.937,121.524L63.869,121.524L64.028,120.434L66.48,120.434L66.053,123.388C65.837,123.47 65.613,123.546 65.381,123.616C65.15,123.686 64.89,123.748 64.601,123.801C64.313,123.853 64.023,123.88 63.733,123.88C63.32,123.88 62.933,123.823 62.571,123.708C62.209,123.594 61.885,123.419 61.597,123.183C61.31,122.947 61.088,122.657 60.929,122.313C60.771,121.969 60.692,121.571 60.692,121.12C60.692,120.806 60.738,120.464 60.828,120.092C60.919,119.72 61.103,119.344 61.38,118.964C61.657,118.585 62.078,118.267 62.643,118.011C63.209,117.754 63.927,117.626 64.797,117.626C65.488,117.626 66.159,117.717 66.809,117.899Z" style="fill:white;fill-rule:nonzero;"/>
                <path d="M73.463,120.694C73.463,121.37 73.334,121.939 73.076,122.399C72.818,122.859 72.435,123.207 71.927,123.445C71.418,123.682 70.789,123.801 70.039,123.801L67.231,123.801L68.106,117.71L70.347,117.71C70.877,117.71 71.341,117.789 71.738,117.947C72.135,118.105 72.461,118.324 72.716,118.602C72.97,118.88 73.159,119.197 73.28,119.553C73.402,119.909 73.463,120.289 73.463,120.694ZM71.876,120.716C71.876,120.411 71.818,120.115 71.703,119.828C71.587,119.541 71.374,119.297 71.063,119.096C70.753,118.896 70.322,118.795 69.771,118.795L69.521,118.795L68.954,122.711L69.771,122.711C70.161,122.711 70.496,122.652 70.775,122.535C71.055,122.418 71.275,122.262 71.435,122.067C71.594,121.872 71.708,121.66 71.775,121.432C71.843,121.203 71.876,120.965 71.876,120.716Z" style="fill:white;fill-rule:nonzero;"/>
            </g>
            <g transform="matrix(1,0,0,1,12.167,337.255)">
                <path d="M16.842,4.29L16.842,4.295C17.008,4.334 17.136,4.417 17.226,4.546C17.316,4.675 17.362,4.831 17.362,5.015C17.362,5.316 17.249,5.576 17.025,5.795C16.8,6.014 16.534,6.123 16.226,6.123C15.959,6.123 15.734,6.035 15.549,5.858C15.364,5.682 15.272,5.462 15.272,5.2C15.272,4.974 15.341,4.771 15.479,4.59C15.618,4.409 15.815,4.294 16.072,4.243L16.072,4.234C15.786,4.113 15.643,3.898 15.643,3.589C15.643,3.32 15.74,3.093 15.933,2.905C16.127,2.718 16.363,2.625 16.641,2.625C16.892,2.625 17.097,2.702 17.258,2.855C17.418,3.009 17.498,3.206 17.498,3.445C17.498,3.634 17.441,3.807 17.327,3.964C17.213,4.121 17.052,4.23 16.842,4.29ZM16.531,4.16C16.75,4.16 16.925,4.089 17.058,3.947C17.19,3.804 17.257,3.642 17.257,3.46C17.257,3.276 17.199,3.126 17.084,3.009C16.97,2.893 16.822,2.835 16.641,2.835C16.433,2.835 16.254,2.908 16.105,3.054C15.957,3.201 15.882,3.377 15.882,3.584C15.882,3.752 15.943,3.89 16.064,3.998C16.185,4.106 16.341,4.16 16.531,4.16ZM16.226,5.913C16.467,5.913 16.677,5.829 16.855,5.659C17.033,5.49 17.122,5.283 17.122,5.039C17.122,4.841 17.055,4.68 16.921,4.556C16.787,4.432 16.61,4.37 16.392,4.37C16.138,4.37 15.928,4.45 15.762,4.61C15.596,4.769 15.513,4.971 15.513,5.215C15.513,5.42 15.58,5.588 15.714,5.718C15.847,5.848 16.018,5.913 16.226,5.913Z" style="fill:white;fill-rule:nonzero;"/>
                <path d="M21.856,2.669L21.827,2.888C21.674,2.866 21.539,2.854 21.422,2.854C20.88,2.854 20.421,3.041 20.047,3.414C19.673,3.788 19.486,4.215 19.486,4.695C19.486,5.034 19.59,5.318 19.799,5.548C20.008,5.779 20.266,5.894 20.572,5.894C20.912,5.894 21.272,5.772 21.651,5.53L21.612,5.808C21.247,6.018 20.902,6.123 20.577,6.123C20.224,6.123 19.91,5.991 19.637,5.726C19.364,5.462 19.227,5.121 19.227,4.705C19.227,4.16 19.439,3.677 19.863,3.256C20.287,2.835 20.808,2.625 21.427,2.625C21.589,2.625 21.732,2.639 21.856,2.669Z" style="fill:white;fill-rule:nonzero;"/>
                <path d="M25.177,2.669L24.696,6.079L24.461,6.079L24.686,4.453L22.445,4.453L22.22,6.079L21.986,6.079L22.459,2.669L22.696,2.669L22.476,4.224L24.72,4.224L24.94,2.669L25.177,2.669Z" style="fill:white;fill-rule:nonzero;"/>
                <path d="M26.956,2.625L27.742,6.079L27.501,6.079L27.222,4.849L25.958,4.849L25.377,6.079L25.137,6.079L26.746,2.625L26.956,2.625ZM26.068,4.619L27.171,4.619L26.807,3.045L26.068,4.619Z" style="fill:white;fill-rule:nonzero;"/>
                <path d="M31.317,2.669L30.831,6.109L30.726,6.109L28.856,3.169L28.446,6.079L28.211,6.079L28.692,2.669L28.826,2.669L30.672,5.589L31.082,2.669L31.317,2.669Z" style="fill:white;fill-rule:nonzero;"/>
                <path d="M34.757,2.669L34.271,6.109L34.166,6.109L32.296,3.169L31.885,6.079L31.651,6.079L32.132,2.669L32.266,2.669L34.112,5.589L34.522,2.669L34.757,2.669Z" style="fill:white;fill-rule:nonzero;"/>
                <path d="M37.31,2.669L37.281,2.898L35.777,2.898L35.587,4.219L37.012,4.219L36.976,4.448L35.557,4.448L35.357,5.85L37.371,5.85L37.342,6.079L35.091,6.079L35.572,2.669L37.31,2.669Z" style="fill:white;fill-rule:nonzero;"/>
                <path d="M38.421,2.669L37.969,5.85L39.5,5.85L39.471,6.079L37.706,6.079L38.184,2.669L38.421,2.669Z" style="fill:white;fill-rule:nonzero;"/>
                <path d="M41.214,6.079L41.695,2.669L42.301,2.669C42.779,2.669 43.191,2.829 43.536,3.15C43.881,3.47 44.053,3.889 44.053,4.404C44.053,4.894 43.888,5.296 43.557,5.609C43.225,5.923 42.807,6.079 42.301,6.079L41.214,6.079ZM41.91,2.888L41.485,5.86L42.21,5.86C42.72,5.86 43.111,5.72 43.385,5.442C43.658,5.164 43.795,4.818 43.795,4.404C43.795,3.954 43.643,3.588 43.341,3.308C43.038,3.028 42.658,2.888 42.2,2.888L41.91,2.888Z" style="fill:white;fill-rule:nonzero;"/>
                <path d="M44.947,2.669L45.728,2.669C46.011,2.669 46.236,2.75 46.401,2.914C46.566,3.078 46.649,3.291 46.649,3.555C46.649,3.784 46.579,3.983 46.441,4.149C46.303,4.316 46.11,4.426 45.863,4.48C45.937,4.522 46.055,4.685 46.214,4.968L46.834,6.079L46.558,6.079L45.987,5.059C45.839,4.795 45.744,4.633 45.703,4.572C45.661,4.511 45.561,4.48 45.404,4.48L44.932,4.48L44.708,6.079L44.473,6.079L44.947,2.669ZM45.152,2.888L44.964,4.26L45.584,4.26C45.833,4.26 46.029,4.198 46.173,4.072C46.316,3.947 46.387,3.776 46.387,3.56C46.387,3.369 46.329,3.21 46.213,3.081C46.097,2.953 45.928,2.888 45.709,2.888L45.152,2.888Z" style="fill:white;fill-rule:nonzero;"/>
                <path d="M50.028,2.669L49.713,4.873C49.656,5.27 49.498,5.578 49.239,5.796C48.98,6.014 48.673,6.123 48.319,6.123C48.006,6.123 47.742,6.023 47.526,5.822C47.311,5.621 47.203,5.362 47.203,5.047C47.203,4.983 47.208,4.919 47.218,4.854L47.528,2.669L47.762,2.669L47.457,4.82C47.449,4.888 47.445,4.955 47.445,5.02C47.445,5.293 47.529,5.507 47.698,5.662C47.868,5.816 48.087,5.894 48.358,5.894C48.665,5.894 48.918,5.796 49.116,5.602C49.313,5.407 49.434,5.158 49.478,4.854L49.793,2.669L50.028,2.669Z" style="fill:white;fill-rule:nonzero;"/>
                <path d="M50.233,6.079L49.986,6.079L51.116,2.669L51.317,2.669L51.932,5.54L53.453,2.669L53.668,2.669L53.668,6.079L53.421,6.079L53.421,3.208L51.898,6.079L51.812,6.079L51.202,3.184L50.233,6.079Z" style="fill:white;fill-rule:nonzero;"/>
                <path d="M55.631,6.079L55.384,6.079L56.514,2.669L56.715,2.669L57.33,5.54L58.851,2.669L59.066,2.669L59.066,6.079L58.819,6.079L58.819,3.208L57.296,6.079L57.21,6.079L56.6,3.184L55.631,6.079Z" style="fill:white;fill-rule:nonzero;"/>
                <path d="M61.368,2.625C61.734,2.625 62.024,2.748 62.238,2.995C62.452,3.241 62.559,3.578 62.559,4.004C62.559,4.595 62.406,5.096 62.098,5.507C61.79,5.918 61.407,6.123 60.948,6.123C60.566,6.123 60.269,6 60.059,5.753C59.849,5.507 59.744,5.159 59.744,4.71C59.744,4.169 59.89,3.687 60.181,3.262C60.473,2.837 60.868,2.625 61.368,2.625ZM60.953,5.894C61.353,5.894 61.678,5.709 61.926,5.338C62.174,4.968 62.298,4.505 62.298,3.95C62.298,3.613 62.214,3.347 62.047,3.15C61.879,2.953 61.653,2.854 61.368,2.854C60.938,2.854 60.603,3.05 60.363,3.443C60.123,3.835 60.003,4.282 60.003,4.785C60.003,5.137 60.087,5.41 60.253,5.603C60.42,5.797 60.653,5.894 60.953,5.894Z" style="fill:white;fill-rule:nonzero;"/>
                <path d="M62.957,6.079L63.438,2.669L64.044,2.669C64.522,2.669 64.934,2.829 65.279,3.15C65.624,3.47 65.797,3.889 65.797,4.404C65.797,4.894 65.631,5.296 65.3,5.609C64.969,5.923 64.55,6.079 64.044,6.079L62.957,6.079ZM63.653,2.888L63.228,5.86L63.953,5.86C64.463,5.86 64.854,5.72 65.128,5.442C65.401,5.164 65.538,4.818 65.538,4.404C65.538,3.954 65.386,3.588 65.084,3.308C64.781,3.028 64.401,2.888 63.944,2.888L63.653,2.888Z" style="fill:white;fill-rule:nonzero;"/>
                <path d="M69.166,2.669L68.851,4.873C68.794,5.27 68.636,5.578 68.377,5.796C68.118,6.014 67.812,6.123 67.457,6.123C67.144,6.123 66.88,6.023 66.665,5.822C66.449,5.621 66.341,5.362 66.341,5.047C66.341,4.983 66.346,4.919 66.356,4.854L66.666,2.669L66.9,2.669L66.595,4.82C66.587,4.888 66.583,4.955 66.583,5.02C66.583,5.293 66.667,5.507 66.837,5.662C67.006,5.816 67.226,5.894 67.496,5.894C67.803,5.894 68.056,5.796 68.254,5.602C68.452,5.407 68.572,5.158 68.616,4.854L68.931,2.669L69.166,2.669Z" style="fill:white;fill-rule:nonzero;"/>
                <path d="M70.091,2.669L69.639,5.85L71.17,5.85L71.141,6.079L69.376,6.079L69.854,2.669L70.091,2.669Z" style="fill:white;fill-rule:nonzero;"/>
                <path d="M73.719,2.669L73.69,2.898L72.186,2.898L71.995,4.219L73.421,4.219L73.385,4.448L71.966,4.448L71.766,5.85L73.78,5.85L73.751,6.079L71.5,6.079L71.981,2.669L73.719,2.669Z" style="fill:white;fill-rule:nonzero;"/>
            </g>
            <g transform="matrix(1,0,0,1,12.7023,5.64457)">
                <path d="M23.951,0.451L23.706,1.746C23.529,1.688 23.359,1.642 23.195,1.607C23.032,1.573 22.876,1.547 22.726,1.53C22.577,1.514 22.436,1.506 22.303,1.506C22.026,1.506 21.761,1.551 21.508,1.64C21.255,1.73 21.029,1.862 20.83,2.035C20.63,2.208 20.476,2.412 20.367,2.649C20.258,2.886 20.203,3.142 20.203,3.419C20.203,3.696 20.264,3.944 20.386,4.164C20.507,4.384 20.677,4.555 20.894,4.679C21.111,4.802 21.351,4.863 21.614,4.863C22.289,4.863 22.987,4.609 23.706,4.1L23.444,5.689C23.309,5.744 23.155,5.804 22.984,5.868C22.812,5.931 22.667,5.98 22.548,6.015C22.429,6.05 22.279,6.081 22.098,6.11C21.916,6.139 21.73,6.154 21.539,6.154C21.155,6.154 20.792,6.1 20.45,5.992C20.108,5.884 19.8,5.717 19.526,5.49C19.253,5.263 19.041,4.986 18.891,4.658C18.742,4.33 18.667,3.957 18.667,3.539C18.667,3.199 18.725,2.844 18.84,2.475C18.954,2.105 19.148,1.751 19.421,1.412C19.693,1.073 20.073,0.794 20.56,0.576C21.047,0.357 21.642,0.248 22.345,0.248C22.63,0.248 22.881,0.264 23.1,0.296C23.319,0.328 23.602,0.379 23.951,0.451Z" style="fill:white;fill-rule:nonzero;"/>
                <path d="M30.762,0.327L29.894,6.079L28.433,6.079L28.765,3.842L26.047,3.842L25.706,6.079L24.241,6.079L25.1,0.327L26.574,0.327L26.258,2.452L28.969,2.452L29.284,0.327L30.762,0.327Z" style="fill:white;fill-rule:nonzero;"/>
                <path d="M36.277,6.079L34.746,6.079L34.592,4.805L32.837,4.805L32.256,6.079L30.753,6.079L33.667,0.327L35.223,0.327L36.277,6.079ZM34.493,3.996L34.219,1.796L33.219,3.996L34.493,3.996Z" style="fill:white;fill-rule:nonzero;"/>
                <path d="M44.769,6.079L43.358,6.079L43.196,2.398L41.2,6.079L40.316,6.079L39.365,2.282L38.116,6.079L36.668,6.079L38.564,0.327L40.112,0.327L41.021,3.979L42.993,0.327L44.499,0.327L44.769,6.079Z" style="fill:white;fill-rule:nonzero;"/>
                <path d="M50.966,4.386C50.966,4.923 50.755,5.363 50.335,5.706C50.21,5.805 50.071,5.882 49.916,5.936C49.761,5.99 49.582,6.027 49.38,6.048C49.178,6.069 48.936,6.079 48.654,6.079L45.778,6.079L46.629,0.327L48.695,0.327C49.027,0.327 49.346,0.359 49.65,0.422C49.954,0.486 50.214,0.619 50.43,0.823C50.646,1.026 50.754,1.316 50.754,1.692C50.754,2.011 50.681,2.273 50.534,2.479C50.387,2.685 50.191,2.863 49.945,3.012C50.625,3.289 50.966,3.747 50.966,4.386ZM49.322,1.862C49.322,1.616 49.247,1.432 49.096,1.308C48.945,1.185 48.701,1.124 48.363,1.124L47.982,1.124L47.753,2.68L48.314,2.68C48.986,2.68 49.322,2.408 49.322,1.862ZM49.426,4.328C49.426,4.109 49.384,3.938 49.299,3.815C49.215,3.692 49.083,3.605 48.903,3.554C48.723,3.503 48.478,3.477 48.168,3.477L47.633,3.477L47.367,5.228L48.33,5.228C49.061,5.228 49.426,4.928 49.426,4.328Z" style="fill:white;fill-rule:nonzero;"/>
                <path d="M57.938,2.875C57.938,3.343 57.862,3.776 57.708,4.174C57.554,4.573 57.331,4.921 57.038,5.218C56.744,5.516 56.394,5.746 55.988,5.909C55.581,6.072 55.126,6.154 54.622,6.154C54.166,6.154 53.717,6.067 53.275,5.893C52.834,5.718 52.47,5.434 52.182,5.04C51.894,4.645 51.75,4.145 51.75,3.539C51.75,3.014 51.841,2.543 52.024,2.128C52.207,1.713 52.457,1.366 52.775,1.086C53.093,0.807 53.453,0.597 53.854,0.458C54.256,0.318 54.682,0.248 55.133,0.248C55.664,0.248 56.143,0.354 56.571,0.565C56.998,0.777 57.333,1.082 57.575,1.481C57.817,1.879 57.938,2.344 57.938,2.875ZM56.399,2.975C56.399,2.687 56.342,2.435 56.228,2.219C56.115,2.004 55.958,1.836 55.757,1.717C55.557,1.598 55.325,1.539 55.062,1.539C54.694,1.539 54.375,1.636 54.105,1.831C53.836,2.026 53.632,2.273 53.493,2.57C53.355,2.868 53.286,3.167 53.286,3.469C53.286,3.856 53.407,4.185 53.649,4.456C53.891,4.728 54.224,4.863 54.647,4.863C54.915,4.863 55.158,4.812 55.373,4.71C55.589,4.607 55.775,4.465 55.932,4.284C56.088,4.103 56.205,3.9 56.282,3.674C56.36,3.449 56.399,3.216 56.399,2.975Z" style="fill:white;fill-rule:nonzero;"/>
                <path d="M63.981,6.079L62.375,6.079L61.802,4.88C61.634,4.517 61.487,4.245 61.362,4.064C61.238,3.883 61.129,3.771 61.035,3.728C60.94,3.685 60.815,3.664 60.657,3.664L60.437,3.664L60.072,6.079L58.615,6.079L59.449,0.327L61.694,0.327C62.511,0.327 63.065,0.507 63.357,0.866C63.649,1.226 63.795,1.615 63.795,2.033C63.795,2.473 63.673,2.815 63.431,3.06C63.189,3.305 62.851,3.456 62.417,3.514C62.638,3.642 62.809,3.791 62.929,3.963C63.05,4.134 63.193,4.401 63.359,4.764L63.981,6.079ZM62.255,1.991C62.255,1.77 62.174,1.577 62.012,1.412C61.85,1.248 61.523,1.165 61.03,1.165L60.802,1.165L60.561,2.825L61.142,2.825C61.552,2.825 61.84,2.739 62.006,2.566C62.172,2.393 62.255,2.201 62.255,1.991Z" style="fill:white;fill-rule:nonzero;"/>
                <path d="M70.477,3.145C70.477,3.784 70.355,4.321 70.111,4.755C69.868,5.19 69.506,5.519 69.026,5.743C68.546,5.967 67.952,6.079 67.244,6.079L64.591,6.079L65.417,0.327L67.534,0.327C68.035,0.327 68.473,0.402 68.848,0.551C69.223,0.7 69.53,0.907 69.771,1.169C70.012,1.432 70.19,1.732 70.304,2.068C70.419,2.404 70.477,2.763 70.477,3.145ZM68.978,3.166C68.978,2.878 68.924,2.598 68.814,2.327C68.705,2.056 68.504,1.826 68.211,1.636C67.917,1.447 67.511,1.352 66.99,1.352L66.754,1.352L66.218,5.05L66.99,5.05C67.358,5.05 67.674,4.995 67.939,4.884C68.203,4.773 68.41,4.626 68.561,4.442C68.712,4.258 68.819,4.058 68.883,3.842C68.947,3.626 68.978,3.401 68.978,3.166Z" style="fill:white;fill-rule:nonzero;"/>
            </g>
            <g transform="matrix(1,0,0,1,-24.7664,25.1375)">
                <path d="M38.417,2.669L38.388,2.898L37.377,2.898L36.928,6.079L36.691,6.079L37.143,2.898L36.132,2.898L36.162,2.669L38.417,2.669Z" style="fill:white;fill-rule:nonzero;"/>
                <path d="M38.796,2.669L39.577,2.669C39.86,2.669 40.085,2.75 40.25,2.914C40.415,3.078 40.498,3.291 40.498,3.555C40.498,3.784 40.428,3.983 40.29,4.149C40.152,4.316 39.959,4.426 39.711,4.48C39.786,4.522 39.903,4.685 40.063,4.968L40.683,6.079L40.407,6.079L39.836,5.059C39.688,4.795 39.593,4.633 39.552,4.572C39.51,4.511 39.41,4.48 39.252,4.48L38.781,4.48L38.557,6.079L38.322,6.079L38.796,2.669ZM39.001,2.888L38.813,4.26L39.433,4.26C39.682,4.26 39.878,4.198 40.021,4.072C40.165,3.947 40.236,3.776 40.236,3.56C40.236,3.369 40.178,3.21 40.062,3.081C39.945,2.953 39.777,2.888 39.558,2.888L39.001,2.888Z" style="fill:white;fill-rule:nonzero;"/>
                <path d="M41.643,2.669L41.162,6.079L40.927,6.079L41.408,2.669L41.643,2.669Z" style="fill:white;fill-rule:nonzero;"/>
                <path d="M44.904,2.705L44.873,2.93C44.645,2.879 44.436,2.854 44.248,2.854C43.627,2.854 43.127,3.027 42.745,3.373C42.363,3.719 42.172,4.149 42.172,4.663C42.172,5.023 42.285,5.318 42.509,5.548C42.734,5.779 43.022,5.894 43.374,5.894C43.616,5.894 43.891,5.817 44.199,5.664L44.309,4.905L43.544,4.905L43.574,4.675L44.572,4.675L44.418,5.779C44.073,6.008 43.715,6.123 43.344,6.123C42.955,6.123 42.62,5.987 42.337,5.716C42.055,5.444 41.914,5.086 41.914,4.644C41.914,4.092 42.131,3.618 42.565,3.22C43,2.823 43.567,2.625 44.267,2.625C44.487,2.625 44.699,2.652 44.904,2.705Z" style="fill:white;fill-rule:nonzero;"/>
                <path d="M47.98,2.705L47.949,2.93C47.721,2.879 47.513,2.854 47.324,2.854C46.704,2.854 46.203,3.027 45.821,3.373C45.439,3.719 45.249,4.149 45.249,4.663C45.249,5.023 45.361,5.318 45.585,5.548C45.81,5.779 46.098,5.894 46.45,5.894C46.692,5.894 46.967,5.817 47.275,5.664L47.385,4.905L46.621,4.905L46.65,4.675L47.648,4.675L47.495,5.779C47.15,6.008 46.791,6.123 46.42,6.123C46.031,6.123 45.696,5.987 45.413,5.716C45.131,5.444 44.99,5.086 44.99,4.644C44.99,4.092 45.207,3.618 45.642,3.22C46.076,2.823 46.643,2.625 47.343,2.625C47.563,2.625 47.775,2.652 47.98,2.705Z" style="fill:white;fill-rule:nonzero;"/>
                <path d="M50.314,2.669L50.285,2.898L48.781,2.898L48.591,4.219L50.017,4.219L49.98,4.448L48.562,4.448L48.361,5.85L50.375,5.85L50.346,6.079L48.095,6.079L48.576,2.669L50.314,2.669Z" style="fill:white;fill-rule:nonzero;"/>
                <path d="M51.198,2.669L51.979,2.669C52.263,2.669 52.487,2.75 52.652,2.914C52.817,3.078 52.9,3.291 52.9,3.555C52.9,3.784 52.831,3.983 52.692,4.149C52.554,4.316 52.361,4.426 52.114,4.48C52.189,4.522 52.306,4.685 52.465,4.968L53.085,6.079L52.81,6.079L52.238,5.059C52.09,4.795 51.995,4.633 51.954,4.572C51.912,4.511 51.813,4.48 51.655,4.48L51.184,4.48L50.959,6.079L50.725,6.079L51.198,2.669ZM51.403,2.888L51.215,4.26L51.835,4.26C52.084,4.26 52.281,4.198 52.424,4.072C52.567,3.947 52.639,3.776 52.639,3.56C52.639,3.369 52.58,3.21 52.464,3.081C52.348,2.953 52.18,2.888 51.96,2.888L51.403,2.888Z" style="fill:white;fill-rule:nonzero;"/>
            </g>
            <g transform="matrix(-0.801103,-0.462517,0.462517,-0.801103,12.1616,533.041)">
                <circle cx="57.575" cy="245.052" r="13.515" style="fill:none;stroke:white;stroke-width:0.92px;"/>
            </g>
            <g transform="matrix(0.462517,-0.801103,0.801103,0.462517,-203.003,-16.0523)">
                <circle cx="57.575" cy="245.052" r="13.515" style="fill:none;stroke:white;stroke-width:0.92px;"/>
            </g>
            <g transform="matrix(0.209747,-0.363292,0.363292,0.209747,-58.5818,7.78527)">
                <circle cx="57.575" cy="245.052" r="13.515" style="fill:none;stroke:white;stroke-width:2.03px;"/>
            </g>
            <g transform="matrix(0.462517,-0.801103,0.801103,0.462517,-203.003,21.0343)">
                <circle cx="57.575" cy="245.052" r="13.515" style="fill:none;stroke:white;stroke-width:0.92px;"/>
            </g>
            <g transform="matrix(0.462517,-0.801103,0.801103,0.462517,-203.003,57.7223)">
                <circle cx="57.575" cy="245.052" r="13.515" style="fill:none;stroke:white;stroke-width:0.92px;"/>
            </g>
            <g transform="matrix(0.462517,-0.801103,0.801103,0.462517,-143.571,57.7223)">
                <circle cx="57.575" cy="245.052" r="13.515" style="fill:none;stroke:white;stroke-width:0.92px;"/>
            </g>
            <g transform="matrix(0.62924,-1.08988,1.08988,0.62924,-223.934,33.4925)">
                <path d="M70.772,234.639C70.889,234.782 70.988,234.935 71.068,235.098C71.148,235.261 71.214,235.454 71.267,235.676L70.81,236.052C70.771,235.825 70.718,235.629 70.649,235.465C70.581,235.301 70.488,235.148 70.371,235.006C70.224,234.827 70.054,234.696 69.862,234.613C69.67,234.53 69.474,234.504 69.274,234.535C69.074,234.566 68.892,234.649 68.728,234.784C68.561,234.922 68.443,235.085 68.375,235.274C68.307,235.463 68.296,235.659 68.342,235.862C68.388,236.065 68.485,236.257 68.633,236.437C68.746,236.575 68.874,236.69 69.017,236.782C69.16,236.875 69.361,236.974 69.621,237.08L69.164,237.456C68.945,237.363 68.761,237.263 68.613,237.156C68.464,237.049 68.315,236.904 68.165,236.722C67.947,236.458 67.805,236.177 67.739,235.882C67.673,235.587 67.69,235.298 67.79,235.016C67.89,234.733 68.058,234.495 68.294,234.3C68.547,234.092 68.824,233.967 69.127,233.924C69.429,233.881 69.723,233.922 70.009,234.047C70.295,234.172 70.55,234.37 70.772,234.639Z" style="fill:white;fill-rule:nonzero;"/>
                <path d="M72.341,237.056L70.849,238.782L73.119,238.697L73.402,239.292L69.81,239.407L69.716,239.209L72.056,236.457L72.341,237.056Z" style="fill:white;fill-rule:nonzero;"/>
            </g>
            <g transform="matrix(0.462517,-0.801103,0.801103,0.462517,-203.003,94.9241)">
                <circle cx="57.575" cy="245.052" r="13.515" style="fill:none;stroke:white;stroke-width:0.92px;"/>
            </g>
            <g transform="matrix(0.462517,-0.801103,0.801103,0.462517,-203.003,131.727)">
                <circle cx="57.575" cy="245.052" r="13.515" style="fill:none;stroke:white;stroke-width:0.92px;"/>
            </g>
            <g transform="matrix(0.462517,-0.801103,0.801103,0.462517,-203.003,168.814)">
                <circle cx="57.575" cy="245.052" r="13.515" style="fill:none;stroke:white;stroke-width:0.92px;"/>
            </g>
            <g transform="matrix(0.998632,0,0,0.998632,44.2693,214.415)">
                <path d="M32.841,35.287C32.841,35.618 32.787,35.924 32.679,36.206C32.57,36.487 32.412,36.733 32.205,36.944C31.998,37.154 31.75,37.317 31.463,37.432C31.175,37.547 30.853,37.605 30.497,37.605C30.175,37.605 29.857,37.544 29.545,37.42C29.233,37.297 28.976,37.096 28.772,36.817C28.569,36.539 28.467,36.185 28.467,35.757C28.467,35.385 28.532,35.053 28.661,34.759C28.79,34.466 28.967,34.221 29.192,34.023C29.417,33.826 29.671,33.677 29.955,33.579C30.238,33.48 30.539,33.43 30.858,33.43C31.234,33.43 31.573,33.505 31.875,33.655C32.177,33.805 32.414,34.02 32.585,34.302C32.756,34.583 32.841,34.912 32.841,35.287ZM31.753,35.358C31.753,35.154 31.713,34.977 31.633,34.824C31.553,34.671 31.442,34.553 31.3,34.469C31.158,34.385 30.994,34.343 30.808,34.343C30.548,34.343 30.323,34.412 30.132,34.55C29.941,34.688 29.797,34.862 29.699,35.072C29.602,35.282 29.553,35.494 29.553,35.707C29.553,35.981 29.638,36.214 29.809,36.405C29.981,36.597 30.216,36.693 30.515,36.693C30.705,36.693 30.876,36.657 31.028,36.584C31.181,36.512 31.312,36.412 31.423,36.283C31.533,36.155 31.616,36.012 31.671,35.852C31.726,35.693 31.753,35.528 31.753,35.358Z" style="fill:white;fill-rule:nonzero;"/>
                <path d="M37.887,33.486L37.527,35.971C37.476,36.331 37.359,36.633 37.176,36.878C36.993,37.122 36.758,37.304 36.47,37.425C36.183,37.545 35.856,37.605 35.491,37.605C35.004,37.605 34.614,37.523 34.323,37.359C34.032,37.194 33.828,36.998 33.711,36.769C33.595,36.54 33.537,36.32 33.537,36.109C33.537,35.935 33.555,35.733 33.592,35.505L33.898,33.486L34.93,33.486L34.619,35.61C34.602,35.716 34.593,35.818 34.593,35.918C34.593,36.139 34.656,36.324 34.784,36.471C34.911,36.619 35.144,36.693 35.485,36.693C35.657,36.693 35.811,36.666 35.948,36.612C36.085,36.558 36.202,36.467 36.3,36.339C36.398,36.211 36.465,36.039 36.5,35.821L36.855,33.486L37.887,33.486Z" style="fill:white;fill-rule:nonzero;"/>
                <path d="M42.285,33.486L42.165,34.314L40.85,34.314L40.363,37.552L39.331,37.552L39.809,34.314L38.501,34.314L38.627,33.486L42.285,33.486Z" style="fill:white;fill-rule:nonzero;"/>
            </g>
            <g transform="matrix(1,0,0,1,60.0781,268.706)">
                <path d="M43.046,5.139L42.976,5.624L41.046,5.624L41.438,2.917L42.136,2.917L41.812,5.139L43.046,5.139Z" style="fill:white;fill-rule:nonzero;"/>
            </g>
            <g transform="matrix(1,0,0,1,60.0131,305.84)">
                <path d="M43.297,5.624L42.541,5.624L42.271,5.059C42.192,4.889 42.123,4.761 42.064,4.676C42.006,4.59 41.954,4.538 41.91,4.517C41.866,4.497 41.807,4.487 41.732,4.487L41.629,4.487L41.457,5.624L40.771,5.624L41.164,2.917L42.221,2.917C42.605,2.917 42.866,3.001 43.003,3.171C43.14,3.34 43.209,3.523 43.209,3.72C43.209,3.927 43.152,4.088 43.038,4.203C42.924,4.318 42.765,4.389 42.561,4.417C42.665,4.477 42.745,4.547 42.802,4.628C42.858,4.709 42.926,4.834 43.004,5.005L43.297,5.624ZM42.484,3.7C42.484,3.596 42.446,3.505 42.37,3.428C42.294,3.35 42.14,3.311 41.908,3.311L41.801,3.311L41.687,4.093L41.961,4.093C42.154,4.093 42.289,4.052 42.367,3.971C42.445,3.889 42.484,3.799 42.484,3.7Z" style="fill:white;fill-rule:nonzero;"/>
            </g>
            <g transform="matrix(-0.801103,-0.462517,0.462517,-0.801103,12.1616,495.923)">
                <circle cx="57.575" cy="245.052" r="13.515" style="fill:none;stroke:white;stroke-width:0.92px;"/>
            </g>
            <g transform="matrix(0.462517,-0.801103,0.801103,0.462517,-203.003,205.727)">
                <circle cx="57.575" cy="245.052" r="13.515" style="fill:none;stroke:white;stroke-width:0.92px;"/>
            </g>
            <g transform="matrix(0.462517,-0.801103,0.801103,0.462517,-203.003,242.814)">
                <circle cx="57.575" cy="245.052" r="13.515" style="fill:none;stroke:white;stroke-width:0.92px;"/>
            </g>
            <path d="M28.583,41.988C29.346,40.77 32.705,38.029 36.808,37.901" style="fill:none;stroke:white;stroke-width:0.9px;"/>
            <g transform="matrix(0.209747,-0.363292,0.363292,0.209747,-58.5818,44.7853)">
                <circle cx="57.575" cy="245.052" r="13.515" style="fill:none;stroke:white;stroke-width:2.03px;"/>
            </g>
            <g transform="matrix(1,0,0,1,0,37)">
                <path d="M28.583,41.988C29.346,40.77 32.705,38.029 36.808,37.901" style="fill:none;stroke:white;stroke-width:0.9px;"/>
            </g>
            <g transform="matrix(0.209747,-0.363292,0.363292,0.209747,-58.5818,81.0609)">
                <circle cx="57.575" cy="245.052" r="13.515" style="fill:none;stroke:white;stroke-width:2.03px;"/>
            </g>
            <g transform="matrix(1,0,0,1,0,73.2756)">
                <path d="M28.583,41.988C29.346,40.77 32.705,38.029 36.808,37.901" style="fill:none;stroke:white;stroke-width:0.9px;"/>
            </g>
            <g transform="matrix(0.209747,-0.363292,0.363292,0.209747,-58.5818,118.336)">
                <circle cx="57.575" cy="245.052" r="13.515" style="fill:none;stroke:white;stroke-width:2.03px;"/>
            </g>
            <g transform="matrix(1,0,0,1,0,110.551)">
                <path d="M28.583,41.988C29.346,40.77 32.705,38.029 36.808,37.901" style="fill:none;stroke:white;stroke-width:0.9px;"/>
            </g>
            <g transform="matrix(0.209747,-0.363292,0.363292,0.209747,-58.5818,155.336)">
                <circle cx="57.575" cy="245.052" r="13.515" style="fill:none;stroke:white;stroke-width:2.03px;"/>
            </g>
            <g transform="matrix(1,0,0,1,0,147.551)">
                <path d="M28.583,41.988C29.346,40.77 32.705,38.029 36.808,37.901" style="fill:none;stroke:white;stroke-width:0.9px;"/>
            </g>
            <g transform="matrix(0.209747,-0.363292,0.363292,0.209747,-58.5818,192.336)">
                <circle cx="57.575" cy="245.052" r="13.515" style="fill:none;stroke:white;stroke-width:2.03px;"/>
            </g>
            <g transform="matrix(1,0,0,1,0,184.551)">
                <path d="M28.583,41.988C29.346,40.77 32.705,38.029 36.808,37.901" style="fill:none;stroke:white;stroke-width:0.9px;"/>
            </g>
            <g transform="matrix(0.209747,-0.363292,0.363292,0.209747,-58.5818,229.336)">
                <circle cx="57.575" cy="245.052" r="13.515" style="fill:none;stroke:white;stroke-width:2.03px;"/>
            </g>
            <g transform="matrix(1,0,0,1,0,221.551)">
                <path d="M28.583,41.988C29.346,40.77 32.705,38.029 36.808,37.901" style="fill:none;stroke:white;stroke-width:0.9px;"/>
            </g>
            <g transform="matrix(0.209747,-0.363292,0.363292,0.209747,-58.5818,266.336)">
                <circle cx="57.575" cy="245.052" r="13.515" style="fill:none;stroke:white;stroke-width:2.03px;"/>
            </g>
            <g transform="matrix(1,0,0,1,0,258.551)">
                <path d="M28.583,41.988C29.346,40.77 32.705,38.029 36.808,37.901" style="fill:none;stroke:white;stroke-width:0.9px;"/>
            </g>
            <g transform="matrix(-0.634484,1.09896,-1.09896,-0.634484,385.202,153.104)">
                <circle cx="57.575" cy="245.052" r="13.515" style="fill:none;stroke:white;stroke-width:0.67px;"/>
            </g>
            <g transform="matrix(-0.776063,1.34418,-1.34418,-0.776063,453.445,173.68)">
                <circle cx="57.575" cy="245.052" r="13.515" style="fill:none;stroke:white;stroke-width:0.55px;"/>
            </g>
            <g transform="matrix(-1.04873,1.81646,-1.81646,-1.04873,584.877,213.307)">
                <path d="M47.439,256.764C47.295,256.639 47.188,256.484 47.117,256.297L47.336,256.043C47.409,256.268 47.505,256.431 47.623,256.533C47.695,256.595 47.763,256.63 47.828,256.637C47.892,256.644 47.944,256.625 47.985,256.578C48.033,256.523 48.04,256.439 48.005,256.326C47.996,256.294 47.949,256.184 47.863,255.997C47.791,255.835 47.759,255.696 47.766,255.58C47.772,255.464 47.818,255.357 47.903,255.259C48.012,255.132 48.146,255.07 48.305,255.071C48.463,255.072 48.615,255.135 48.76,255.26C48.855,255.342 48.927,255.422 48.977,255.502C49.027,255.581 49.072,255.683 49.113,255.807L48.87,256.088C48.825,255.821 48.733,255.627 48.594,255.506C48.524,255.446 48.455,255.412 48.386,255.405C48.316,255.398 48.26,255.42 48.217,255.47C48.158,255.538 48.147,255.626 48.185,255.734C48.217,255.821 48.262,255.931 48.32,256.063C48.39,256.216 48.424,256.353 48.42,256.473C48.417,256.593 48.375,256.699 48.294,256.792C48.187,256.916 48.056,256.975 47.9,256.969C47.744,256.963 47.59,256.894 47.439,256.764Z" style="fill:white;fill-rule:nonzero;"/>
                <path d="M45.726,255.008L45.944,254.809L46.539,255.463L46.918,255.117L46.348,254.492L46.566,254.293L47.136,254.919L47.546,254.545L46.937,253.877L47.155,253.679L48.018,254.625L46.576,255.94L45.726,255.008Z" style="fill:white;fill-rule:nonzero;"/>
                <path d="M45.123,254.227L46.474,253.268L45.925,252.496L46.165,252.325L46.932,253.405L45.341,254.535L45.123,254.227Z" style="fill:white;fill-rule:nonzero;"/>
                <path d="M43.71,251.936L43.968,251.794L44.394,252.569L44.843,252.322L44.436,251.58L44.694,251.438L45.101,252.18L45.587,251.914L45.153,251.121L45.411,250.979L46.027,252.102L44.317,253.041L43.71,251.936Z" style="fill:white;fill-rule:nonzero;"/>
                <path d="M43.039,250.418C42.999,250.315 42.972,250.209 42.957,250.101C42.942,249.993 42.941,249.87 42.953,249.734L43.284,249.606C43.263,249.743 43.257,249.865 43.265,249.971C43.273,250.077 43.296,250.182 43.336,250.285C43.386,250.415 43.458,250.522 43.551,250.605C43.645,250.689 43.752,250.741 43.871,250.761C43.991,250.782 44.11,250.769 44.229,250.723C44.351,250.676 44.449,250.606 44.523,250.511C44.598,250.417 44.641,250.307 44.653,250.183C44.666,250.058 44.647,249.931 44.597,249.8C44.558,249.7 44.507,249.61 44.444,249.531C44.38,249.451 44.284,249.356 44.156,249.247L44.487,249.119C44.595,249.214 44.68,249.306 44.745,249.395C44.809,249.484 44.866,249.594 44.917,249.726C44.991,249.918 45.019,250.105 45.001,250.285C44.982,250.466 44.918,250.627 44.807,250.769C44.697,250.911 44.556,251.015 44.385,251.081C44.201,251.151 44.02,251.17 43.839,251.137C43.659,251.104 43.499,251.025 43.36,250.9C43.221,250.774 43.114,250.614 43.039,250.418Z" style="fill:white;fill-rule:nonzero;"/>
                <path d="M42.286,247.558L42.574,247.494L42.724,248.171L44.341,247.811L44.423,248.179L42.806,248.539L42.956,249.215L42.669,249.279L42.286,247.558Z" style="fill:white;fill-rule:nonzero;"/>
            </g>
        </g>
    </g>
</svg>
